<?xml version="1.0" encoding="utf-8"?>
<!-- Generator: Adobe Illustrator 23.0.6, SVG Export Plug-In . SVG Version: 6.00 Build 0)  -->
<svg version="1.1" id="Capa_1" xmlns="http://www.w3.org/2000/svg" xmlns:xlink="http://www.w3.org/1999/xlink" x="0px" y="0px"
	 viewBox="0 0 512 512" style="enable-background:new 0 0 512 512;" xml:space="preserve">
<style type="text/css">
	.st0{fill:#F44336;}
	.st1{fill:#FFC107;}
	.st2{fill:#4CAF50;}
	.st3{fill:#2196F3;}
	.st4{fill:#FAFAFA;}
</style>
<g>
	<path class="st0" d="M493.2,160H256c-53-0.1-96,42.9-96.1,95.9c0,16.5,4.2,32.7,12.3,47L53.6,99.4C140-12.4,300.6-33,412.5,53.4
		C448.4,81.1,476.2,117.9,493.2,160z"/>
	<path class="st1" d="M512,256c-0.1,141.3-114.7,255.9-256,256c-10.7,0-21.4-0.7-32-2.1L339.2,304c26.4-46,10.7-104.6-35.2-131.2
		c-14.5-8.4-31-12.8-47.8-12.8h237C505.7,190.5,512.1,223.1,512,256z"/>
	<path class="st2" d="M339.2,304L224,509.9h-0.2C83.6,492.2-15.7,364.2,2,224c5.7-45.4,23.5-88.4,51.5-124.5L172.2,303l0.6,1.1
		c26.5,46,85.1,61.8,131.1,35.3C318.6,330.9,330.8,318.7,339.2,304z"/>
	<path class="st0" d="M339.2,304c-26.5,46-85.1,61.8-131.1,35.3c-14.7-8.4-26.9-20.6-35.3-35.3l-0.6-1.1
		c-25.9-46.3-9.4-104.8,36.8-130.7c14.4-8.1,30.6-12.3,47-12.3h0.2c16.8,0,33.3,4.4,47.8,12.8C349.9,199.4,365.6,258.1,339.2,304z"
		/>
	<path class="st3" d="M339.2,304c-26.5,46-85.1,61.8-131.1,35.3c-14.7-8.4-26.9-20.6-35.3-35.3l-0.6-1.1
		c-25.9-46.3-9.4-104.8,36.8-130.7c14.4-8.1,30.6-12.3,47-12.3h0.2c16.8,0,33.3,4.4,47.8,12.8C349.9,199.4,365.6,258.1,339.2,304z"
		/>
	<path class="st4" d="M255.7,362.7c-18.6,0-36.9-4.9-53-14.2c-16.2-9.4-29.7-22.9-39.1-39.1c-29.5-51-12-116.3,39-145.7
		c16.2-9.4,34.6-14.3,53.4-14.3c58.9,0,106.7,47.7,106.7,106.6c0,18.8-4.9,37.2-14.3,53.4l0,0C329.3,342.4,293.9,362.7,255.7,362.7z
		 M256.2,170.7c-30.6-0.2-59,16.1-74.2,42.7c-23.6,40.9-9.5,93.1,31.3,116.7s93.1,9.5,116.7-31.3l0,0c23.6-40.8,9.6-93-31.2-116.6
		C285.8,174.7,271.2,170.7,256.2,170.7L256.2,170.7L256.2,170.7z"/>
</g>
</svg>
